<svg xmlns="http://www.w3.org/2000/svg" width="1200" height="1200" xmlns:v="https://vecta.io/nano"><path d="M0 0h1200v1200H0z" fill="#fff" fill-opacity="0" pointer-events="none"/><path d="M599.856-.144c331.2 0 600 268.8 600 600s-268.8 600-600 600-600-268.8-600-600 268.8-600 600-600z" fill="#ff8a87"/><path d="M443.638 561.986h0m-163.83-252.894h0" paint-order="fill" fill="#333"/><path d="M248.553 410.308h432.32c12.68 46.643 55.04 79.016 103.393 79.016s90.713-32.373 103.393-79.016h57.32c14.793 0 26.786-11.988 26.786-26.776s-11.992-26.776-26.786-26.776h-57.32c-12.68-46.643-55.04-79.016-103.393-79.016s-90.713 32.373-103.393 79.016h-432.32c-14.793 0-26.786 11.988-26.786 26.776s11.992 26.776 26.786 26.776zm535.714-80.328c29.587 0 53.57 23.976 53.57 53.552s-23.985 53.552-53.57 53.552-53.57-23.976-53.57-53.552 23.985-53.552 53.57-53.552zm160.715 240.984H512.66c-12.68-46.643-55.04-79.016-103.393-79.016s-90.713 32.373-103.393 79.016h-57.32c-14.793 0-26.786 11.988-26.786 26.776s11.992 26.776 26.786 26.776h57.32c12.68 46.643 55.04 79.016 103.393 79.016s90.713-32.373 103.393-79.016h432.32c14.793 0 26.786-11.988 26.786-26.776s-11.992-26.776-26.786-26.776zm-535.714 80.328c-29.587 0-53.57-23.976-53.57-53.552s23.985-53.552 53.57-53.552 53.57 23.976 53.57 53.552-23.985 53.552-53.57 53.552zM944.982 785.17h-191.25c-12.68-46.643-55.04-79.016-103.393-79.016s-90.713 32.373-103.393 79.016H248.553c-14.793 0-26.786 11.988-26.786 26.776s11.992 26.776 26.786 26.776h298.393c12.68 46.643 55.04 79.016 103.393 79.016s90.713-32.373 103.393-79.016h191.25c14.793 0 26.786-11.988 26.786-26.776s-11.992-26.776-26.786-26.776zM650.34 865.5c-29.587 0-53.57-23.976-53.57-53.552s23.985-53.552 53.57-53.552 53.57 23.976 53.57 53.552-23.985 53.552-53.57 53.552z" fill="#2b324c"/></svg>